<?xml version="1.0" standalone="no"?><!DOCTYPE svg PUBLIC "-//W3C//DTD SVG 1.1//EN" "http://www.w3.org/Graphics/SVG/1.1/DTD/svg11.dtd"><svg t="1675334446123" class="icon" viewBox="0 0 1024 1024" version="1.1" xmlns="http://www.w3.org/2000/svg" p-id="1226" xmlns:xlink="http://www.w3.org/1999/xlink" width="200" height="200"><path d="M807.41 943.68H223.6c-32.58 0-62.91-15.46-85.4-43.54C116.82 873.45 105 838.23 105 801V460.73c0-37.27 11.77-72.5 33.14-99.2C160.67 333.45 191 318 223.6 318h352.62c20.44 0 38.07 21.59 83.23 83.29 11.37 15.54 27.86 38.07 35.71 46.31h189.66c14.05 0 26.36 9 33.77 24.65A81.84 81.84 0 0 1 926 506v295c0 37.27-11.78 72.49-33.16 99.17-22.51 28.05-52.84 43.51-85.43 43.51zM223.6 360.5c-19.42 0-38 9.81-52.23 27.61-15.36 19.18-23.82 45-23.82 72.62V801c0 27.63 8.46 53.4 23.82 72.58 14.26 17.8 32.8 27.6 52.22 27.6h583.82c19.42 0 38-9.8 52.22-27.59 15.36-19.17 23.82-45 23.82-72.59V506a39.3 39.3 0 0 0-3.45-15.9H688.81c-16.36 0-26.7-13.21-63.67-63.71-14.89-20.34-41.91-57.26-52.93-65.89z m346.88-1.2z" fill="#666666" p-id="1227"></path><path d="M464.43 523.65H308.75a33.32 33.32 0 0 1 0-64.79h155.68a33.32 33.32 0 0 1 0 64.79zM897.91 415.71a21.26 21.26 0 0 1-21.26-21.26V281.51a99.28 99.28 0 0 0-99.17-99.17H246.73a99.28 99.28 0 0 0-99.17 99.17v18.1a21.26 21.26 0 0 1-42.52 0v-18.1c0-78.13 63.56-141.69 141.69-141.69h530.76c78.13 0 141.69 63.56 141.69 141.69v112.94a21.26 21.26 0 0 1-21.27 21.26z" fill="#666666" p-id="1228"></path></svg>