<?xml version="1.0" standalone="no"?><!DOCTYPE svg PUBLIC "-//W3C//DTD SVG 1.1//EN" "http://www.w3.org/Graphics/SVG/1.1/DTD/svg11.dtd"><svg t="1668928382189" class="icon" viewBox="0 0 1024 1024" version="1.1" xmlns="http://www.w3.org/2000/svg" p-id="5430" xmlns:xlink="http://www.w3.org/1999/xlink" width="200" height="200"><path d="M649.102222 528.308148v146.394074H374.897778v-146.394074h274.204444m4.740741-68.266667h-284.444444a63.525926 63.525926 0 0 0-63.525926 63.525926v155.875556a63.525926 63.525926 0 0 0 63.525926 63.525926h284.444444a63.525926 63.525926 0 0 0 63.525926-63.525926v-155.875556a63.525926 63.525926 0 0 0-63.525926-63.525926z" fill="#707070" p-id="5431"></path><path d="M767.620741 64.474074h122.69037v872.296296h-122.69037z" fill="#707070" p-id="5432"></path><path d="M839.68 115.674074a7.585185 7.585185 0 0 1 7.585185 7.585185v777.481482a7.585185 7.585185 0 0 1-7.585185 7.585185H184.50963a7.585185 7.585185 0 0 1-7.585186-7.585185V325.214815L386.465185 115.674074h453.214815m0-68.266667H375.656296a34.891852 34.891852 0 0 0-23.134815 5.878519L113.777778 291.081481c-5.878519 5.878519-5.878519 11.567407-5.878519 23.134815V900.740741a75.851852 75.851852 0 0 0 75.851852 75.851852h655.17037a75.851852 75.851852 0 0 0 75.851852-75.851852v-777.481482a75.851852 75.851852 0 0 0-75.851852-75.851852z" fill="#707070" p-id="5433"></path><path d="M466.10963 74.524444a34.133333 34.133333 0 0 0-34.133334 34.133334v106.951111a34.133333 34.133333 0 0 0 68.266667 0V108.657778a34.133333 34.133333 0 0 0-34.133333-34.133334zM593.92 74.524444a34.133333 34.133333 0 0 0-34.133333 34.133334v106.951111a34.133333 34.133333 0 1 0 68.266666 0V108.657778a34.133333 34.133333 0 0 0-34.133333-34.133334zM721.73037 74.524444a34.133333 34.133333 0 0 0-34.133333 34.133334v106.951111a34.133333 34.133333 0 1 0 68.266667 0V108.657778a34.133333 34.133333 0 0 0-34.133334-34.133334z" fill="#707070" p-id="5434"></path></svg>