<?xml version="1.0" standalone="no"?><!DOCTYPE svg PUBLIC "-//W3C//DTD SVG 1.1//EN" "http://www.w3.org/Graphics/SVG/1.1/DTD/svg11.dtd"><svg t="1675335123013" class="icon" viewBox="0 0 1024 1024" version="1.1" xmlns="http://www.w3.org/2000/svg" p-id="1366" xmlns:xlink="http://www.w3.org/1999/xlink" width="200" height="200"><path d="M513 926.77a409 409 0 1 1 159.69-32.25A407.68 407.68 0 0 1 513 926.77z m0-777.94c-202.75 0-367.71 165-367.71 367.71S310.24 884.25 513 884.25s367.71-165 367.71-367.71S715.75 148.83 513 148.83z" fill="#666666" p-id="1367"></path><path d="M651.54 673.57a21.19 21.19 0 0 1-15-6.23L487.35 518.18V241.57a21.26 21.26 0 0 1 42.52 0v259l136.71 136.71a21.26 21.26 0 0 1-15 36.29z" fill="#666666" p-id="1368"></path></svg>